#N canvas 868 108 265 206 10;
#X declare -lib mrpeach;
#N canvas 0 0 1354 685 gemobject 0;
#X obj 62 294 colorRGB 1 0 1;
#X obj 62 344 translate 0 0 0 0;
#X obj 154 272 loadbang;
#X msg 154 294 1;
#X obj 62 364 square 0.2;
#X obj 206 297 list;
#X obj 254 271 pack f f f;
#X floatatom 254 252 5 0 0 0 - - -;
#X floatatom 282 252 5 0 0 0 - - -;
#X floatatom 311 252 5 0 0 0 - - -;
#X obj 254 209 bng 15 250 50 0 empty empty empty 17 7 0 10 -262144
-1 -1;
#X obj 210 276 bng 15 250 50 0 empty empty empty 17 7 0 10 -262144
-1 -1;
#X obj 67 471 f;
#X obj 67 524 s xaxis;
#X obj 254 228 r xaxis;
#X obj 282 228 r yaxis;
#X obj 107 471 f;
#X obj 255 297 s xaxissum;
#X obj 130 454 r xaxissum;
#X obj 67 496 + 0.1;
#X obj 107 496 - 0.1;
#X obj 67 436 r dkey;
#X obj 107 436 r akey;
#X obj 203 474 f;
#X obj 243 474 f;
#X text 70 405 Left/Right;
#X text 205 407 Up/Down;
#X obj 203 439 r skey;
#X obj 243 439 r wkey;
#X obj 266 457 r yaxissum;
#X obj 203 527 s yaxis;
#X obj 282 297 s yaxissum;
#X obj 206 325 print;
#X msg 256 335 0 0 0;
#X obj 62 317 rotate 0 0 0;
#N canvas 340 107 682 322 gemwin 0;
#X obj 102 122 tgl 15 0 \$0-gemstart \$0-gemstart empty 17 7 0 10 -262144
-1 -1 1 1;
#X obj 102 161 r \$0-gemstart;
#X obj 102 182 select 1 0;
#X msg 102 214 create \, 1;
#X msg 177 215 destroy;
#X obj 102 239 t a;
#X obj 318 54 inlet;
#X obj 318 255 gemwin;
#X obj 318 100 t a a;
#X obj 318 287 outlet;
#X obj 350 128 route create destroy;
#X obj 350 150 t b;
#X msg 350 172 1;
#X obj 390 150 t b;
#X msg 390 172 0;
#X obj 350 195 t f;
#X msg 350 219 set \$1;
#X text 118 122 VisualGame;
#X connect 1 0 2 0;
#X connect 2 0 3 0;
#X connect 2 1 4 0;
#X connect 3 0 5 0;
#X connect 4 0 5 0;
#X connect 5 0 8 0;
#X connect 6 0 8 0;
#X connect 7 0 9 0;
#X connect 8 0 7 0;
#X connect 8 1 10 0;
#X connect 10 0 11 0;
#X connect 10 1 13 0;
#X connect 11 0 12 0;
#X connect 12 0 15 0;
#X connect 13 0 14 0;
#X connect 14 0 15 0;
#X connect 15 0 16 0;
#X connect 16 0 0 0;
#X coords 0 -1 1 1 85 40 1 100 100;
#X restore 102 106 pd gemwin;
#X obj 203 499 - 0.1;
#X obj 243 499 + 0.1;
#X msg 62 242 -3.6;
#X obj 62 217 loadbang;
#X msg 98 242 3.6;
#X obj 385 387 translate 0 0 0 0;
#X obj 477 315 loadbang;
#X obj 385 360 rotate 0 0 0;
#X obj 385 407 square 1;
#X msg 477 337 1;
#X obj 385 337 colorRGB 1 1 1;
#X msg 484 363 -2 2 0;
#X obj 384 508 translate 0 0 0 0;
#X obj 476 436 loadbang;
#X obj 384 481 rotate 0 0 0;
#X msg 476 458 1;
#X obj 384 458 colorRGB 1 1 1;
#X obj 384 528 square 0.4;
#X msg 483 484 0.5 2.6 0;
#X obj 547 387 translate 0 0 0 0;
#X obj 639 315 loadbang;
#X obj 547 360 rotate 0 0 0;
#X msg 639 337 1;
#X obj 547 337 colorRGB 1 1 1;
#X obj 547 407 square 0.4;
#X msg 646 363 0.5 1.6 0;
#X obj 548 512 translate 0 0 0 0;
#X obj 640 440 loadbang;
#X obj 548 485 rotate 0 0 0;
#X msg 640 462 1;
#X obj 548 532 square 2;
#X msg 647 488 -1 -1.6 0;
#X obj 1067 613 translate 0 0 0 0;
#X obj 1159 541 loadbang;
#X obj 1067 633 square 0.2;
#X obj 1081 476 list;
#X obj 1129 450 pack f f f;
#X floatatom 1129 431 5 0 0 0 - - -;
#X floatatom 1157 431 5 0 0 0 - - -;
#X floatatom 1186 431 5 0 0 0 - - -;
#X obj 1109 438 bng 15 250 50 0 empty empty empty 17 7 0 10 -262144
-1 -1;
#X obj 1085 455 bng 15 250 50 0 empty empty empty 17 7 0 10 -262144
-1 -1;
#X obj 1081 504 print;
#X msg 1131 514 0 0 0;
#X obj 1067 586 rotate 0 0 0;
#X obj 1164 389 loadbang;
#X obj 1067 563 colorRGB 1 0 0;
#X msg 1159 563 1;
#X obj 1067 543 gemhead 10;
#X obj 385 317 gemhead 5;
#X obj 547 317 gemhead 5;
#X obj 384 438 gemhead 5;
#X obj 548 442 gemhead 5;
#X obj 62 274 gemhead 10;
#X msg 1164 414 1.5;
#X msg 1200 414 -3.4;
#X obj 548 462 colorRGB 1 1 0;
#X obj 819 189 r xaxissum;
#X obj 819 206 f;
#X obj 818 373 tgl 15 0 empty empty empty 17 7 0 10 -262144 -1 -1 0
1;
#X floatatom 819 240 5 0 0 0 - - -;
#X floatatom 884 294 5 0 0 0 - - -;
#X floatatom 819 295 5 0 0 0 - - -;
#X obj 956 224 f;
#X floatatom 867 241 5 0 0 0 - - -;
#X obj 819 259 expr $f1 / $f2 \; if ($f1 > $f2 \, 0.1 \, -0.1) \;;
#X obj 819 321 == 1;
#X floatatom 819 343 5 0 0 0 - - -;
#X obj 819 225 bng 15 250 50 0 empty empty empty 17 7 0 10 -262144
-1 -1;
#X obj 857 337 route 0 1;
#X msg 882 356 1;
#X msg 908 356 0;
#X obj 1140 474 s enemyx;
#X obj 869 398 r enemyx;
#X obj 869 420 +;
#X obj 839 460 s enemyxeval;
#X obj 839 437 f;
#X obj 1126 348 r enemyxeval;
#X text 147 225 Character;
#X text 514 273 Scene;
#X obj 790 323 bng 15 250 50 0 empty empty empty 17 7 0 10 -262144
-1 -1;
#X obj 822 515 f;
#X obj 821 682 tgl 15 0 empty empty empty 17 7 0 10 -262144 -1 -1 0
1;
#X floatatom 822 549 5 0 0 0 - - -;
#X floatatom 887 603 5 0 0 0 - - -;
#X floatatom 822 604 5 0 0 0 - - -;
#X obj 959 535 f;
#X floatatom 870 552 5 0 0 0 - - -;
#X obj 822 568 expr $f1 / $f2 \; if ($f1 > $f2 \, 0.1 \, -0.1) \;;
#X obj 822 630 == 1;
#X floatatom 822 652 5 0 0 0 - - -;
#X obj 822 534 bng 15 250 50 0 empty empty empty 17 7 0 10 -262144
-1 -1;
#X obj 860 646 route 0 1;
#X msg 885 665 1;
#X msg 911 665 0;
#X obj 872 729 +;
#X obj 842 746 f;
#X obj 793 632 bng 15 250 50 0 empty empty empty 17 7 0 10 -262144
-1 -1;
#X obj 822 498 r yaxissum;
#X obj 842 769 s enemyyeval;
#X obj 872 707 r enemyy;
#X obj 118 153 tgl 15 0 empty empty empty 17 7 0 10 -262144 -1 -1 0
1;
#X text 140 152 Chase;
#X obj 1153 494 s enemyy;
#X obj 1137 367 r enemyyeval;
#X obj 839 374 metro 100;
#X obj 842 683 metro 100;
#X floatatom 1077 199 5 0 0 0 - - -;
#X floatatom 1109 199 5 0 0 0 - - -;
#X floatatom 1141 199 5 0 0 0 - - -;
#X floatatom 1173 199 5 0 0 0 - - -;
#X obj 1094 229 +;
#X obj 1077 178 bng 15 250 50 0 empty empty empty 17 7 0 10 -262144
-1 -1;
#X obj 1141 230 +;
#X obj 1141 179 bng 15 250 50 0 empty empty empty 17 7 0 10 -262144
-1 -1;
#X obj 1117 265 +;
#X floatatom 1121 293 5 0 0 0 - - -;
#X obj 1045 31 expr $f1 + $f2 \; if ($f1 >= 0.9 \, 1 \, 0) \; if ($f1
<= 1.1 \, 1 \, 0) \; if ($f2 >= 0.8 \, 1 \, 0) \; if ($f2 <= 1.1 \,
1 \, 0) \;;
#X obj 997 398 spigot;
#X msg 1012 423 0;
#X obj 997 444 s reset;
#X obj 1178 315 r reset;
#X obj 61 194 r reset;
#X obj 1061 224 / 4;
#X floatatom 1070 254 5 0 0 0 - - -;
#X obj 975 353 tgl 15 0 empty empty empty 17 7 0 10 -262144 -1 -1 0
1;
#X obj 975 368 metro 100;
#X obj 1067 279 == 1;
#X floatatom 1068 302 5 0 0 0 - - -;
#X obj 211 108 r chaseon;
#X connect 0 0 34 0;
#X connect 1 0 4 0;
#X connect 2 0 3 0;
#X connect 3 0 1 1;
#X connect 5 0 1 2;
#X connect 5 0 32 0;
#X connect 6 0 5 1;
#X connect 6 0 11 0;
#X connect 7 0 6 0;
#X connect 7 0 17 0;
#X connect 8 0 6 1;
#X connect 8 0 10 0;
#X connect 8 0 31 0;
#X connect 9 0 6 2;
#X connect 9 0 10 0;
#X connect 10 0 7 0;
#X connect 11 0 5 0;
#X connect 12 0 19 0;
#X connect 14 0 7 0;
#X connect 15 0 8 0;
#X connect 16 0 20 0;
#X connect 18 0 12 1;
#X connect 18 0 16 1;
#X connect 19 0 13 0;
#X connect 20 0 13 0;
#X connect 21 0 12 0;
#X connect 22 0 16 0;
#X connect 23 0 36 0;
#X connect 24 0 37 0;
#X connect 27 0 23 0;
#X connect 28 0 24 0;
#X connect 29 0 23 1;
#X connect 29 0 24 1;
#X connect 33 0 1 2;
#X connect 34 0 1 0;
#X connect 36 0 30 0;
#X connect 37 0 30 0;
#X connect 38 0 7 0;
#X connect 39 0 38 0;
#X connect 39 0 40 0;
#X connect 40 0 8 0;
#X connect 41 0 44 0;
#X connect 42 0 45 0;
#X connect 42 0 47 0;
#X connect 43 0 41 0;
#X connect 45 0 41 1;
#X connect 46 0 43 0;
#X connect 47 0 41 2;
#X connect 48 0 53 0;
#X connect 49 0 51 0;
#X connect 49 0 54 0;
#X connect 50 0 48 0;
#X connect 51 0 48 1;
#X connect 52 0 50 0;
#X connect 54 0 48 2;
#X connect 55 0 60 0;
#X connect 56 0 58 0;
#X connect 56 0 61 0;
#X connect 57 0 55 0;
#X connect 58 0 55 1;
#X connect 59 0 57 0;
#X connect 61 0 55 2;
#X connect 62 0 66 0;
#X connect 63 0 65 0;
#X connect 63 0 67 0;
#X connect 64 0 62 0;
#X connect 65 0 62 1;
#X connect 67 0 62 2;
#X connect 68 0 70 0;
#X connect 69 0 83 0;
#X connect 71 0 68 2;
#X connect 71 0 78 0;
#X connect 72 0 71 1;
#X connect 72 0 77 0;
#X connect 73 0 72 0;
#X connect 73 0 99 0;
#X connect 73 0 108 0;
#X connect 74 0 72 1;
#X connect 74 0 76 0;
#X connect 74 0 122 0;
#X connect 74 0 139 0;
#X connect 75 0 72 2;
#X connect 75 0 76 0;
#X connect 76 0 73 0;
#X connect 77 0 71 0;
#X connect 79 0 68 2;
#X connect 80 0 68 0;
#X connect 81 0 90 0;
#X connect 81 0 91 0;
#X connect 82 0 80 0;
#X connect 83 0 68 1;
#X connect 84 0 82 0;
#X connect 85 0 46 0;
#X connect 86 0 59 0;
#X connect 87 0 52 0;
#X connect 88 0 92 0;
#X connect 89 0 0 0;
#X connect 90 0 73 0;
#X connect 91 0 74 0;
#X connect 92 0 64 0;
#X connect 93 0 94 0;
#X connect 94 0 96 0;
#X connect 95 0 141 0;
#X connect 96 0 101 0;
#X connect 97 0 110 1;
#X connect 98 0 102 0;
#X connect 98 0 116 0;
#X connect 98 0 153 0;
#X connect 99 0 100 0;
#X connect 100 0 101 1;
#X connect 100 0 104 0;
#X connect 101 0 98 0;
#X connect 101 1 97 0;
#X connect 102 0 103 0;
#X connect 103 0 105 0;
#X connect 104 0 96 0;
#X connect 105 1 106 0;
#X connect 105 2 107 0;
#X connect 106 0 95 0;
#X connect 107 0 95 0;
#X connect 109 0 110 0;
#X connect 110 0 112 1;
#X connect 112 0 111 0;
#X connect 113 0 73 0;
#X connect 116 0 103 0;
#X connect 117 0 119 0;
#X connect 118 0 142 0;
#X connect 119 0 124 0;
#X connect 120 0 131 1;
#X connect 121 0 125 0;
#X connect 121 0 133 0;
#X connect 121 0 153 1;
#X connect 122 0 123 0;
#X connect 123 0 124 1;
#X connect 123 0 127 0;
#X connect 124 0 121 0;
#X connect 124 1 120 0;
#X connect 125 0 126 0;
#X connect 126 0 128 0;
#X connect 127 0 119 0;
#X connect 128 1 129 0;
#X connect 128 2 130 0;
#X connect 129 0 118 0;
#X connect 130 0 118 0;
#X connect 131 0 132 1;
#X connect 132 0 135 0;
#X connect 133 0 126 0;
#X connect 134 0 117 0;
#X connect 136 0 131 0;
#X connect 137 0 95 0;
#X connect 137 0 118 0;
#X connect 137 0 161 0;
#X connect 140 0 74 0;
#X connect 141 0 112 0;
#X connect 142 0 132 0;
#X connect 143 0 147 0;
#X connect 144 0 148 0;
#X connect 144 0 147 1;
#X connect 145 0 149 0;
#X connect 145 0 148 0;
#X connect 146 0 149 1;
#X connect 146 0 150 0;
#X connect 146 0 148 0;
#X connect 147 0 151 0;
#X connect 148 0 143 0;
#X connect 149 0 151 1;
#X connect 150 0 145 0;
#X connect 151 0 152 0;
#X connect 152 0 159 0;
#X connect 153 1 143 0;
#X connect 153 2 144 0;
#X connect 153 3 145 0;
#X connect 153 4 146 0;
#X connect 154 0 155 0;
#X connect 154 0 156 0;
#X connect 155 0 137 0;
#X connect 157 0 90 0;
#X connect 157 0 91 0;
#X connect 158 0 38 0;
#X connect 158 0 40 0;
#X connect 159 0 160 0;
#X connect 160 0 163 0;
#X connect 161 0 162 0;
#X connect 162 0 154 0;
#X connect 163 0 164 0;
#X connect 164 0 154 1;
#X connect 165 0 137 0;
#X coords 0 -1 1 1 90 75 1 100 100;
#X restore 3 3 pd gemobject;
#N canvas 0 0 1354 685 walking 0;
#X obj 33 -218 key;
#X obj 134 -217 key;
#X obj 254 -219 key;
#X obj 360 -218 key;
#X obj 326 -131 key;
#X floatatom 326 -100 5 0 0 0 - - -;
#X text 33 -245 up;
#X text 131 -244 down;
#X text 255 -242 left;
#X text 361 -241 right;
#X floatatom 40 -146 5 0 0 0 - - -;
#X floatatom 138 -148 5 0 0 0 - - -;
#X floatatom 254 -147 5 0 0 0 - - -;
#X floatatom 360 -149 5 0 0 0 - - -;
#X obj 33 -114 sel 1;
#X obj 159 110 bng 30 250 50 0 empty empty empty 17 7 0 10 -262144
-1 -1;
#X obj 49 -94 sel 0;
#X obj 49 -61 bng 15 250 50 0 empty empty empty 17 7 0 10 -262144 -1
-1;
#X obj 138 -115 sel 1;
#X obj 159 158 bng 30 250 50 0 empty empty empty 17 7 0 10 -262144
-1 -1;
#X obj 154 -95 sel 0;
#X obj 154 -58 bng 15 250 50 0 empty empty empty 17 7 0 10 -262144
-1 -1;
#X obj 260 -110 sel 1;
#X obj 113 158 bng 30 250 50 0 empty empty empty 17 7 0 10 -262144
-1 -1;
#X obj 276 -90 sel 0;
#X obj 276 -53 bng 15 250 50 0 empty empty empty 17 7 0 10 -262144
-1 -1;
#X obj 367 -113 sel 1;
#X obj 205 159 bng 30 250 50 0 empty empty empty 17 7 0 10 -262144
-1 -1;
#X obj 383 -93 sel 0;
#X obj 383 -56 bng 15 250 50 0 empty empty empty 17 7 0 10 -262144
-1 -1;
#X obj 33 -26 tgl 15 0 empty empty empty 17 7 0 10 -262144 -1 -1 0
1;
#X obj 81 -216 keyup;
#X msg 82 -163 0;
#X obj 187 -218 keyup;
#X msg 188 -165 0;
#X msg 49 -45 0;
#X msg 154 -38 0;
#X obj 138 -21 tgl 15 0 empty empty empty 17 7 0 10 -262144 -1 -1 0
1;
#X obj 300 -217 keyup;
#X msg 301 -164 0;
#X msg 276 -32 0;
#X obj 260 -15 tgl 15 0 empty empty empty 17 7 0 10 -262144 -1 -1 0
1;
#X obj 411 -219 keyup;
#X msg 412 -166 0;
#X msg 383 -32 0;
#X obj 367 -15 tgl 15 0 empty empty empty 17 7 0 10 -262144 -1 -1 0
1;
#X obj 83 -66 spigot;
#X obj 318 -54 spigot;
#X obj 172 -15 tgl 15 0 empty empty empty 17 7 0 10 -262144 -1 -1 0
1;
#X msg 211 -100 1;
#X msg 85 -26 1;
#X obj 85 4 s soundwalk;
#X obj 319 15 s soundwalkstop;
#X text 169 117 W;
#X text 122 164 A;
#X text 169 165 S;
#X text 214 166 D;
#X obj 211 3 1;
#X msg 319 -11 0;
#X obj 159 228 s wkey;
#X obj 113 227 s akey;
#X obj 162 252 s skey;
#X obj 208 253 s dkey;
#X obj 587 -196 key;
#X obj 688 -195 key;
#X obj 808 -197 key;
#X obj 914 -196 key;
#X obj 880 -109 key;
#X floatatom 880 -78 5 0 0 0 - - -;
#X text 587 -223 up;
#X text 685 -222 down;
#X text 809 -220 left;
#X text 915 -219 right;
#X floatatom 594 -124 5 0 0 0 - - -;
#X floatatom 692 -126 5 0 0 0 - - -;
#X floatatom 808 -125 5 0 0 0 - - -;
#X floatatom 914 -127 5 0 0 0 - - -;
#X obj 587 -92 sel 1;
#X obj 713 132 bng 30 250 50 0 empty empty empty 17 7 0 10 -262144
-1 -1;
#X obj 603 -72 sel 0;
#X obj 603 -39 bng 15 250 50 0 empty empty empty 17 7 0 10 -262144
-1 -1;
#X obj 692 -93 sel 1;
#X obj 713 180 bng 30 250 50 0 empty empty empty 17 7 0 10 -262144
-1 -1;
#X obj 708 -73 sel 0;
#X obj 708 -36 bng 15 250 50 0 empty empty empty 17 7 0 10 -262144
-1 -1;
#X obj 814 -88 sel 1;
#X obj 667 180 bng 30 250 50 0 empty empty empty 17 7 0 10 -262144
-1 -1;
#X obj 830 -68 sel 0;
#X obj 830 -31 bng 15 250 50 0 empty empty empty 17 7 0 10 -262144
-1 -1;
#X obj 921 -91 sel 1;
#X obj 759 181 bng 30 250 50 0 empty empty empty 17 7 0 10 -262144
-1 -1;
#X obj 937 -71 sel 0;
#X obj 937 -34 bng 15 250 50 0 empty empty empty 17 7 0 10 -262144
-1 -1;
#X obj 587 -4 tgl 15 0 empty empty empty 17 7 0 10 -262144 -1 -1 0
1;
#X obj 635 -194 keyup;
#X msg 636 -141 0;
#X obj 741 -196 keyup;
#X msg 742 -143 0;
#X msg 603 -23 0;
#X msg 708 -16 0;
#X obj 692 1 tgl 15 0 empty empty empty 17 7 0 10 -262144 -1 -1 0 1
;
#X obj 854 -195 keyup;
#X msg 855 -142 0;
#X msg 830 -10 0;
#X obj 814 7 tgl 15 0 empty empty empty 17 7 0 10 -262144 -1 -1 0 1
;
#X obj 965 -197 keyup;
#X msg 966 -144 0;
#X msg 937 -10 0;
#X obj 921 7 tgl 15 0 empty empty empty 17 7 0 10 -262144 -1 -1 0 1
;
#X obj 637 -44 spigot;
#X obj 872 -32 spigot;
#X obj 726 7 tgl 15 0 empty empty empty 17 7 0 10 -262144 -1 -1 0 1
;
#X msg 765 -78 1;
#X msg 639 -4 1;
#X obj 639 26 s soundwalk;
#X obj 873 37 s soundwalkstop;
#X text 723 139 W;
#X text 676 186 A;
#X text 723 187 S;
#X text 768 188 D;
#X obj 765 25 1;
#X msg 873 11 0;
#X obj 713 250 s wkey;
#X obj 667 249 s akey;
#X obj 716 274 s skey;
#X obj 762 275 s dkey;
#X obj 585 -165 == 87;
#X obj 636 -166 == 87;
#X obj 688 -166 == 83;
#X obj 742 -168 == 83;
#X obj 808 -168 == 65;
#X obj 855 -167 == 65;
#X obj 914 -167 == 68;
#X obj 966 -169 == 68;
#X obj 254 -190 == 97;
#X obj 301 -189 == 97;
#X obj 360 -189 == 100;
#X obj 412 -191 == 100;
#X obj 134 -188 == 115;
#X obj 188 -190 == 115;
#X obj 31 -187 == 119;
#X obj 82 -188 == 119;
#X connect 0 0 140 0;
#X connect 1 0 138 0;
#X connect 2 0 134 0;
#X connect 3 0 136 0;
#X connect 4 0 5 0;
#X connect 10 0 14 0;
#X connect 10 0 16 0;
#X connect 11 0 18 0;
#X connect 11 0 20 0;
#X connect 12 0 22 0;
#X connect 12 0 24 0;
#X connect 13 0 26 0;
#X connect 13 0 28 0;
#X connect 14 0 15 0;
#X connect 15 0 30 0;
#X connect 15 0 57 0;
#X connect 15 0 59 0;
#X connect 16 0 17 0;
#X connect 17 0 35 0;
#X connect 18 0 19 0;
#X connect 19 0 37 0;
#X connect 19 0 57 0;
#X connect 19 0 61 0;
#X connect 20 0 21 0;
#X connect 21 0 36 0;
#X connect 22 0 23 0;
#X connect 23 0 41 0;
#X connect 23 0 57 0;
#X connect 23 0 60 0;
#X connect 24 0 25 0;
#X connect 25 0 40 0;
#X connect 26 0 27 0;
#X connect 27 0 45 0;
#X connect 27 0 57 0;
#X connect 27 0 62 0;
#X connect 28 0 29 0;
#X connect 29 0 44 0;
#X connect 30 0 46 1;
#X connect 31 0 141 0;
#X connect 32 0 10 0;
#X connect 33 0 139 0;
#X connect 34 0 11 0;
#X connect 35 0 30 0;
#X connect 36 0 37 0;
#X connect 37 0 46 1;
#X connect 38 0 135 0;
#X connect 39 0 12 0;
#X connect 40 0 41 0;
#X connect 41 0 46 1;
#X connect 42 0 137 0;
#X connect 43 0 13 0;
#X connect 44 0 45 0;
#X connect 45 0 46 1;
#X connect 46 0 50 0;
#X connect 47 0 58 0;
#X connect 49 0 47 1;
#X connect 49 0 47 0;
#X connect 50 0 51 0;
#X connect 57 0 46 0;
#X connect 58 0 52 0;
#X connect 63 0 126 0;
#X connect 64 0 128 0;
#X connect 65 0 130 0;
#X connect 66 0 132 0;
#X connect 67 0 68 0;
#X connect 73 0 77 0;
#X connect 73 0 79 0;
#X connect 74 0 81 0;
#X connect 74 0 83 0;
#X connect 75 0 85 0;
#X connect 75 0 87 0;
#X connect 76 0 89 0;
#X connect 76 0 91 0;
#X connect 77 0 78 0;
#X connect 78 0 93 0;
#X connect 78 0 120 0;
#X connect 78 0 122 0;
#X connect 79 0 80 0;
#X connect 80 0 98 0;
#X connect 81 0 82 0;
#X connect 82 0 100 0;
#X connect 82 0 120 0;
#X connect 82 0 124 0;
#X connect 83 0 84 0;
#X connect 84 0 99 0;
#X connect 85 0 86 0;
#X connect 86 0 104 0;
#X connect 86 0 120 0;
#X connect 86 0 123 0;
#X connect 87 0 88 0;
#X connect 88 0 103 0;
#X connect 89 0 90 0;
#X connect 90 0 108 0;
#X connect 90 0 120 0;
#X connect 90 0 125 0;
#X connect 91 0 92 0;
#X connect 92 0 107 0;
#X connect 93 0 109 1;
#X connect 94 0 127 0;
#X connect 95 0 73 0;
#X connect 96 0 129 0;
#X connect 97 0 74 0;
#X connect 98 0 93 0;
#X connect 99 0 100 0;
#X connect 100 0 109 1;
#X connect 101 0 131 0;
#X connect 102 0 75 0;
#X connect 103 0 104 0;
#X connect 104 0 109 1;
#X connect 105 0 133 0;
#X connect 106 0 76 0;
#X connect 107 0 108 0;
#X connect 108 0 109 1;
#X connect 109 0 113 0;
#X connect 110 0 121 0;
#X connect 112 0 110 1;
#X connect 112 0 110 0;
#X connect 113 0 114 0;
#X connect 120 0 109 0;
#X connect 121 0 115 0;
#X connect 126 0 73 0;
#X connect 127 0 95 0;
#X connect 127 0 112 0;
#X connect 128 0 74 0;
#X connect 129 0 97 0;
#X connect 129 0 112 0;
#X connect 130 0 75 0;
#X connect 131 0 102 0;
#X connect 131 0 112 0;
#X connect 132 0 76 0;
#X connect 133 0 106 0;
#X connect 133 0 112 0;
#X connect 134 0 12 0;
#X connect 135 0 39 0;
#X connect 135 0 49 0;
#X connect 136 0 13 0;
#X connect 137 0 43 0;
#X connect 137 0 49 0;
#X connect 138 0 11 0;
#X connect 139 0 34 0;
#X connect 139 0 49 0;
#X connect 140 0 10 0;
#X connect 141 0 32 0;
#X connect 141 0 49 0;
#X coords 0 -1 1 1 150 100 1 100 100;
#X restore 3 81 pd walking;
#N canvas 0 0 1366 685 room 0;
#X obj 35 37 r xaxissum;
#X obj 106 37 r yaxissum;
#X floatatom 327 139 5 0 0 0 - - -;
#X floatatom 359 139 5 0 0 0 - - -;
#X floatatom 391 139 5 0 0 0 - - -;
#X floatatom 423 139 5 0 0 0 - - -;
#X obj 344 169 +;
#X obj 327 118 bng 15 250 50 0 empty empty empty 17 7 0 10 -262144
-1 -1;
#X obj 391 170 +;
#X obj 391 119 bng 15 250 50 0 empty empty empty 17 7 0 10 -262144
-1 -1;
#X obj 367 205 +;
#X floatatom 371 233 5 0 0 0 - - -;
#X obj 311 164 / 4;
#X floatatom 320 194 5 0 0 0 - - -;
#X obj 317 219 == 1;
#X floatatom 318 242 5 0 0 0 - - -;
#X obj 271 233 spigot;
#X floatatom 35 63 5 0 0 0 - - -;
#X floatatom 106 63 5 0 0 0 - - -;
#X obj 271 168 bng 15 250 50 0 empty empty empty 17 7 0 10 -262144
-1 -1;
#X obj 299 14 r xaxissum;
#X obj 370 14 r yaxissum;
#X obj 295 41 expr $f1 + $f2 \; if ($f1 >= -2.8 \, 1 \, 0) \; if ($f1
<= -1.2 \, 1 \, 0) \; if ($f2 >= 1.2 \, 1 \, 0) \; if ($f2 <= 2.8 \,
1 \, 0) \;;
#X obj 105 132 vradio 15 1 0 4 empty empty empty 0 -8 0 10 -262144
-1 -1 3;
#X text 125 130 Small Room;
#X text 125 146 Medium Room;
#X text 125 162 Large Room;
#X text 126 177 Outside;
#X obj 272 256 s roomassign;
#X obj 33 84 r roomassign;
#X msg 271 202 1;
#X floatatom 527 139 5 0 0 0 - - -;
#X floatatom 559 139 5 0 0 0 - - -;
#X floatatom 591 139 5 0 0 0 - - -;
#X floatatom 623 139 5 0 0 0 - - -;
#X obj 544 169 +;
#X obj 527 118 bng 15 250 50 0 empty empty empty 17 7 0 10 -262144
-1 -1;
#X obj 591 170 +;
#X obj 591 119 bng 15 250 50 0 empty empty empty 17 7 0 10 -262144
-1 -1;
#X obj 567 205 +;
#X floatatom 571 233 5 0 0 0 - - -;
#X obj 511 164 / 4;
#X floatatom 520 194 5 0 0 0 - - -;
#X obj 517 219 == 1;
#X floatatom 518 242 5 0 0 0 - - -;
#X obj 471 233 spigot;
#X obj 471 168 bng 15 250 50 0 empty empty empty 17 7 0 10 -262144
-1 -1;
#X obj 499 14 r xaxissum;
#X obj 570 14 r yaxissum;
#X obj 472 256 s roomassign;
#X obj 495 41 expr $f1 + $f2 \; if ($f1 >= 0.2 \, 1 \, 0) \; if ($f1
<= 0.7 \, 1 \, 0) \; if ($f2 >= 2.4 \, 1 \, 0) \; if ($f2 <= 2.8 \,
1 \, 0) \;;
#X msg 471 202 0;
#X floatatom 526 408 5 0 0 0 - - -;
#X floatatom 558 408 5 0 0 0 - - -;
#X floatatom 590 408 5 0 0 0 - - -;
#X floatatom 622 408 5 0 0 0 - - -;
#X obj 543 438 +;
#X obj 526 387 bng 15 250 50 0 empty empty empty 17 7 0 10 -262144
-1 -1;
#X obj 590 439 +;
#X obj 590 388 bng 15 250 50 0 empty empty empty 17 7 0 10 -262144
-1 -1;
#X obj 566 474 +;
#X floatatom 570 502 5 0 0 0 - - -;
#X obj 510 433 / 4;
#X floatatom 519 463 5 0 0 0 - - -;
#X obj 516 488 == 1;
#X floatatom 517 511 5 0 0 0 - - -;
#X obj 470 502 spigot;
#X obj 470 437 bng 15 250 50 0 empty empty empty 17 7 0 10 -262144
-1 -1;
#X obj 498 283 r xaxissum;
#X obj 569 283 r yaxissum;
#X obj 471 525 s roomassign;
#X msg 470 471 0;
#X obj 494 310 expr $f1 + $f2 \; if ($f1 >= 0.2 \, 1 \, 0) \; if ($f1
<= 0.7 \, 1 \, 0) \; if ($f2 >= 1.4 \, 1 \, 0) \; if ($f2 <= 1.8 \,
1 \, 0) \;;
#X floatatom 346 405 5 0 0 0 - - -;
#X floatatom 378 405 5 0 0 0 - - -;
#X floatatom 410 405 5 0 0 0 - - -;
#X obj 363 435 +;
#X obj 346 384 bng 15 250 50 0 empty empty empty 17 7 0 10 -262144
-1 -1;
#X obj 410 436 +;
#X obj 410 385 bng 15 250 50 0 empty empty empty 17 7 0 10 -262144
-1 -1;
#X obj 386 471 +;
#X floatatom 390 499 5 0 0 0 - - -;
#X obj 330 430 / 4;
#X floatatom 339 460 5 0 0 0 - - -;
#X obj 336 485 == 1;
#X floatatom 337 508 5 0 0 0 - - -;
#X obj 290 499 spigot;
#X obj 290 434 bng 15 250 50 0 empty empty empty 17 7 0 10 -262144
-1 -1;
#X obj 318 280 r xaxissum;
#X obj 389 280 r yaxissum;
#X obj 291 522 s roomassign;
#X obj 314 307 expr $f1 + $f2 \; if ($f1 >= -2.8 \, 1 \, 0) \; if ($f1
<= 0.8 \, 1 \, 0) \; if ($f2 >= -3.4 \, 1 \, 0) \; if ($f2 <= 0.15
\, 1 \, 0) \;;
#X msg 290 468 2;
#X floatatom 443 405 5 0 0 0 - - -;
#X obj 419 574 +;
#X obj 459 574 +;
#X obj 439 604 +;
#X obj 275 312 bng 15 250 50 0 empty empty empty 17 7 0 10 -262144
-1 -1;
#X obj 509 547 == 0;
#X msg 602 578 4;
#X obj 602 602 s roomassign;
#X floatatom 509 568 5 0 0 0 - - -;
#X obj 543 573 spigot;
#X obj 595 542 tgl 15 0 empty empty empty 17 7 0 10 -262144 -1 -1 1
1;
#X obj 338 550 s chaseon;
#X obj 105 218 s roomsizeforgame;
#X connect 0 0 17 0;
#X connect 1 0 18 0;
#X connect 2 0 6 0;
#X connect 3 0 7 0;
#X connect 3 0 6 1;
#X connect 4 0 8 0;
#X connect 4 0 7 0;
#X connect 5 0 8 1;
#X connect 5 0 9 0;
#X connect 5 0 7 0;
#X connect 6 0 10 0;
#X connect 7 0 2 0;
#X connect 8 0 10 1;
#X connect 9 0 4 0;
#X connect 10 0 11 0;
#X connect 11 0 12 0;
#X connect 12 0 13 0;
#X connect 13 0 14 0;
#X connect 14 0 15 0;
#X connect 15 0 16 1;
#X connect 15 0 19 0;
#X connect 15 0 94 0;
#X connect 16 0 28 0;
#X connect 19 0 30 0;
#X connect 20 0 22 0;
#X connect 21 0 22 1;
#X connect 22 1 2 0;
#X connect 22 2 3 0;
#X connect 22 3 4 0;
#X connect 22 4 5 0;
#X connect 23 0 105 0;
#X connect 29 0 23 0;
#X connect 30 0 16 0;
#X connect 31 0 35 0;
#X connect 32 0 36 0;
#X connect 32 0 35 1;
#X connect 33 0 37 0;
#X connect 33 0 36 0;
#X connect 34 0 37 1;
#X connect 34 0 38 0;
#X connect 34 0 36 0;
#X connect 35 0 39 0;
#X connect 36 0 31 0;
#X connect 37 0 39 1;
#X connect 38 0 33 0;
#X connect 39 0 40 0;
#X connect 40 0 41 0;
#X connect 41 0 42 0;
#X connect 42 0 43 0;
#X connect 43 0 44 0;
#X connect 44 0 45 1;
#X connect 44 0 46 0;
#X connect 44 0 95 0;
#X connect 44 0 97 0;
#X connect 45 0 49 0;
#X connect 46 0 51 0;
#X connect 47 0 50 0;
#X connect 48 0 50 1;
#X connect 50 1 31 0;
#X connect 50 2 32 0;
#X connect 50 3 33 0;
#X connect 50 4 34 0;
#X connect 51 0 45 0;
#X connect 52 0 56 0;
#X connect 53 0 57 0;
#X connect 53 0 56 1;
#X connect 54 0 58 0;
#X connect 54 0 57 0;
#X connect 55 0 58 1;
#X connect 55 0 59 0;
#X connect 55 0 57 0;
#X connect 56 0 60 0;
#X connect 57 0 52 0;
#X connect 58 0 60 1;
#X connect 59 0 54 0;
#X connect 60 0 61 0;
#X connect 61 0 62 0;
#X connect 62 0 63 0;
#X connect 63 0 64 0;
#X connect 64 0 65 0;
#X connect 65 0 66 1;
#X connect 65 0 67 0;
#X connect 65 0 95 1;
#X connect 65 0 97 0;
#X connect 66 0 70 0;
#X connect 67 0 71 0;
#X connect 68 0 72 0;
#X connect 69 0 72 1;
#X connect 71 0 66 0;
#X connect 72 1 52 0;
#X connect 72 2 53 0;
#X connect 72 3 54 0;
#X connect 72 4 55 0;
#X connect 73 0 76 0;
#X connect 74 0 77 0;
#X connect 74 0 76 1;
#X connect 75 0 78 0;
#X connect 75 0 77 0;
#X connect 76 0 80 0;
#X connect 77 0 73 0;
#X connect 78 0 80 1;
#X connect 79 0 75 0;
#X connect 80 0 81 0;
#X connect 81 0 82 0;
#X connect 82 0 83 0;
#X connect 83 0 84 0;
#X connect 84 0 85 0;
#X connect 85 0 86 1;
#X connect 85 0 87 0;
#X connect 85 0 94 1;
#X connect 85 0 97 0;
#X connect 85 0 104 0;
#X connect 86 0 90 0;
#X connect 87 0 92 0;
#X connect 88 0 91 0;
#X connect 89 0 91 1;
#X connect 91 1 73 0;
#X connect 91 2 74 0;
#X connect 91 3 75 0;
#X connect 91 4 93 0;
#X connect 92 0 86 0;
#X connect 93 0 79 0;
#X connect 93 0 77 0;
#X connect 93 0 78 1;
#X connect 94 0 96 0;
#X connect 95 0 96 1;
#X connect 95 0 97 0;
#X connect 96 0 98 0;
#X connect 97 0 15 0;
#X connect 98 0 101 0;
#X connect 99 0 100 0;
#X connect 101 0 102 1;
#X connect 101 0 102 0;
#X connect 102 0 103 0;
#X connect 103 0 99 0;
#X coords 0 -1 1 1 95 100 1 100 100;
#X restore 160 81 pd room;
#N canvas 730 23 598 441 osc 0;
#X obj 13 87 tgl 15 0 empty empty connected 20 7 0 8 -24198 -241291
-1 1 1;
#X obj 13 64 udpsend;
#X text 166 -2 <--first connect to a host and port;
#X msg 13 -2 connect localhost 9997;
#X obj 116 47 packOSC;
#X obj 103 122 bng 15 250 50 0 empty empty empty 17 7 0 10 -262144
-1 -1;
#X text 119 121 Connect OSC;
#X msg 334 20 /playch2 1;
#X msg 207 252 /playch5 1;
#X msg 368 100 /playch11 1;
#X obj 323 -19 bng 15 250 50 0 empty empty empty 17 7 0 10 -262144
-1 -1;
#X msg 345 48 /volch9 0;
#X msg 355 73 /volch10 0.6;
#X obj 19 227 bng 15 250 50 0 empty empty empty 17 7 0 10 -262144 -1
-1;
#X msg 380 127 /volch13 0.5;
#X text 43 224 Everything is fine again;
#X msg 24 260 /stopch2 1;
#X msg 35 288 /volch9 0.6;
#X msg 45 313 /volch10 0;
#X msg 58 340 /stopch11 1;
#X msg 70 367 /volch13 0;
#X obj 207 227 bng 15 250 50 0 empty empty empty 17 7 0 10 -262144
-1 -1;
#X text 231 226 Reset;
#X msg 208 278 /roomsizeg 75;
#X msg 306 279 /roomsizeg 10;
#X obj 306 226 bng 15 250 50 0 empty empty empty 17 7 0 10 -262144
-1 -1;
#X text 333 224 Small room;
#X obj 416 226 bng 15 250 50 0 empty empty empty 17 7 0 10 -262144
-1 -1;
#X text 443 224 Medium room;
#X msg 416 279 /roomsizeg 35;
#X obj 209 316 bng 15 250 50 0 empty empty empty 17 7 0 10 -262144
-1 -1;
#X text 236 314 Larger room;
#X msg 209 369 /roomsizeg 50;
#X text 347 -22 Danger!;
#X obj 336 173 s togameaudio;
#X obj 36 423 s togameaudio;
#X obj 206 423 s togameaudio;
#X obj 115 27 r togameaudio;
#X obj 319 316 bng 15 250 50 0 empty empty empty 17 7 0 10 -262144
-1 -1;
#X msg 319 369 /roomsizeg 50;
#X text 346 314 Outside;
#X obj 198 168 r roomsizeforgame;
#X obj 198 194 select 0 1 2 3;
#X obj 143 194 r reset;
#X obj 19 176 r chaseon;
#X obj 19 199 select 0;
#X obj 399 -34 r chaseon;
#X obj 399 -11 select 1;
#X connect 1 0 0 0;
#X connect 3 0 1 0;
#X connect 4 0 1 0;
#X connect 5 0 3 0;
#X connect 7 0 34 0;
#X connect 8 0 35 0;
#X connect 9 0 34 0;
#X connect 10 0 7 0;
#X connect 10 0 11 0;
#X connect 10 0 12 0;
#X connect 10 0 9 0;
#X connect 10 0 14 0;
#X connect 11 0 34 0;
#X connect 12 0 34 0;
#X connect 13 0 16 0;
#X connect 13 0 17 0;
#X connect 13 0 18 0;
#X connect 13 0 19 0;
#X connect 13 0 20 0;
#X connect 14 0 34 0;
#X connect 16 0 35 0;
#X connect 17 0 35 0;
#X connect 18 0 35 0;
#X connect 19 0 35 0;
#X connect 20 0 35 0;
#X connect 21 0 16 0;
#X connect 21 0 17 0;
#X connect 21 0 18 0;
#X connect 21 0 19 0;
#X connect 21 0 20 0;
#X connect 21 0 8 0;
#X connect 21 0 23 0;
#X connect 23 0 36 0;
#X connect 24 0 36 0;
#X connect 25 0 24 0;
#X connect 27 0 29 0;
#X connect 29 0 36 0;
#X connect 30 0 32 0;
#X connect 32 0 36 0;
#X connect 37 0 4 0;
#X connect 38 0 39 0;
#X connect 39 0 36 0;
#X connect 41 0 42 0;
#X connect 42 0 25 0;
#X connect 42 1 27 0;
#X connect 42 2 30 0;
#X connect 42 3 38 0;
#X connect 43 0 21 0;
#X connect 44 0 45 0;
#X connect 45 0 13 0;
#X connect 46 0 47 0;
#X connect 47 0 10 0;
#X coords 0 -1 1 1 90 40 1 100 100;
#X restore 163 35 pd osc;
#X obj 163 7 import mrpeach;
