#N canvas 549 95 450 300 10;
#X obj 125 249 outlet;
#X obj 192 254 s \$1-out;
#X obj 201 14 r \$1-in;
#X obj 203 95 r \$2-in;
#X obj 203 142 route \$1 -record-;
#X obj 203 170 f;
#X obj 257 254 pack s 0;
#X obj 260 168 b;
#X obj 257 305 s \$2-out;
#X msg 257 280 add list \$1 \$2;
#X obj 260 193 symbol \$1-in;
#X obj 102 119 nbx 5 14 -1e+037 1e+037 0 0 empty empty empty 0 -8 0
10 -262144 -1 -1 0 256;
#X obj 122 19 inlet;
#X connect 2 0 11 0;
#X connect 3 0 4 0;
#X connect 4 0 5 0;
#X connect 4 1 7 0;
#X connect 5 0 11 0;
#X connect 6 0 9 0;
#X connect 7 0 10 0;
#X connect 9 0 8 0;
#X connect 10 0 6 0;
#X connect 11 0 0 0;
#X connect 11 0 1 0;
#X connect 11 0 6 1;
#X connect 12 0 11 0;
#X coords 0 -1 1 1 70 35 1 100 100;
