#N canvas 651 210 450 300 10;
#X obj 78 242 outlet;
#X obj 330 168 b;
#X obj 89 43 inlet;
#X obj 273 142 route \$1 -record-;
#X msg 257 280 add list \$1 \$2;
#X obj 145 247 s \$1-channelout;
#X obj 201 14 r \$1-channelin;
#X obj 273 95 r \$2-channelin;
#X obj 330 193 symbol \$1-channelin;
#X obj 257 305 s \$2-channelout;
#X obj 273 170 f;
#X floatatom 4 20 5 0 0 0 - - -;
#X obj 257 254 pack s f;
#X connect 1 0 8 0;
#X connect 2 0 11 0;
#X connect 3 0 10 0;
#X connect 3 1 1 0;
#X connect 4 0 9 0;
#X connect 6 0 11 0;
#X connect 7 0 3 0;
#X connect 8 0 12 0;
#X connect 10 0 11 0;
#X connect 11 0 0 0;
#X connect 11 0 5 0;
#X connect 11 0 12 1;
#X connect 12 0 4 0;
#X coords 0 -1 1 1 40 40 1 0 0;
