#N canvas 651 210 450 300 10;
#X obj 78 242 outlet;
#X obj 330 168 b;
#X obj 257 254 pack s s;
#X obj 89 43 inlet;
#X obj 50 75 symbol;
#X obj 273 170 symbol;
#X obj 273 142 route \$1 -record-;
#X msg 257 280 add list \$1 \$2;
#X obj 145 247 s \$1-channelout;
#X obj 201 14 r \$1-channelin;
#X obj 273 95 r \$2-channelin;
#X obj 330 193 symbol \$1-channelin;
#X obj 257 305 s \$2-channelout;
#X connect 1 0 11 0;
#X connect 2 0 7 0;
#X connect 3 0 4 0;
#X connect 4 0 0 0;
#X connect 4 0 2 1;
#X connect 4 0 8 0;
#X connect 5 0 4 0;
#X connect 6 0 5 0;
#X connect 6 1 1 0;
#X connect 7 0 12 0;
#X connect 9 0 4 0;
#X connect 10 0 6 0;
#X connect 11 0 2 0;
#X coords 0 300 1 299 160 40 0;
