#N canvas 0 0 1354 685 10;
#X obj 239 -1628 textfile;
#X obj 6 -179 bng 15 250 50 0 empty empty store 16 7 0 10 -262144 -1
-1;
#X obj 6 -160 bng 15 250 50 0 empty empty recall 15 7 0 10 -262144
-1 -1;
#X obj 437 -1584 tgl 10 0 empty empty empty 0 -6 0 8 -262144 -1 -1
0 1;
#X obj 133 -1855 t b b b;
#X msg 248 -1793 clear;
#X msg 143 -1765 -record-;
#X obj 90 -1707 symbol \$1.txt;
#X obj 392 -1799 1;
#X obj 339 -1723 symbol \$1.txt;
#X obj 341 -1749 loadbang;
#X msg 339 -1698 read \$1 cr;
#X msg 91 -1680 write \$1 cr;
#X obj 104 -1615 until;
#X msg 239 -1592 \; \$1 \$2;
#X obj 141 -1739 s \$2-in;
#X obj 253 -1727 r \$2-out;
#X obj 106 -1649 t b b;
#X msg 169 -1646 rewind;
#X obj 337 -1619 print;
#X obj 253 -1694 spigot;
#X obj 340 -1788 1;
#X obj 307 -1790 0;
#X obj 117 -290 outlet;
#X obj 71 -325 inlet;
#X connect 0 0 14 0;
#X connect 0 1 13 1;
#X connect 1 0 4 0;
#X connect 2 0 17 0;
#X connect 2 0 23 0;
#X connect 4 0 7 0;
#X connect 4 0 8 0;
#X connect 4 0 22 0;
#X connect 4 1 6 0;
#X connect 4 2 5 0;
#X connect 4 2 21 0;
#X connect 5 0 0 0;
#X connect 6 0 15 0;
#X connect 7 0 12 0;
#X connect 8 0 3 0;
#X connect 9 0 11 0;
#X connect 10 0 9 0;
#X connect 11 0 0 0;
#X connect 12 0 0 0;
#X connect 13 0 0 0;
#X connect 16 0 20 0;
#X connect 17 0 13 0;
#X connect 17 1 18 0;
#X connect 18 0 0 0;
#X connect 20 0 0 0;
#X connect 21 0 20 1;
#X connect 22 0 20 1;
#X connect 24 0 2 0;
#X coords 0 -1 1 1 85 60 1 0 -200;
